<svg xmlns="http://www.w3.org/2000/svg" width="263" height="44" viewBox="0 0 263 44"><g><g><g><path fill="#b7adad" d="M16.898 24.083c0-2.752-1.789-4.473-4.472-4.473H8.64c-1.238.138-1.789.895-1.789 2.34v6.674h5.574c2.752 0 4.472-1.72 4.472-4.541zM6.852 10.597v3.853h5.023c2.821 0 3.854-2.202 3.854-4.06 0-2.477-1.445-3.922-3.922-3.922H8.985c-1.445.069-2.064.826-2.064 2.34v1.789zm16.583 13.968c0 5.917-4.472 9.701-11.49 9.701H.452V4.61c0-1.857 1.514-3.371 3.372-3.44h7.982c6.261 0 10.32 3.372 10.32 8.601 0 3.44-1.72 5.367-2.752 6.261l-.894.757 1.032.55c2.477 1.308 3.922 3.992 3.922 7.226zm133.417-2.822c0-5.367-2.89-5.986-5.091-5.986-4.404 0-4.748 4.404-4.748 5.78 0 3.028 1.307 6.33 5.092 6.33 2.202-.069 4.747-1.1 4.747-6.124zm6.744-11.49V32.27c0 8.394-6.812 11.422-12.661 11.422-2.821 0-5.986-.757-8.394-2.064l-.482-.275.757-1.996.55-1.376c.62-1.445 1.445-1.789 2.89-1.376 1.101.413 2.752.826 4.61.826 3.785 0 5.849-1.79 5.849-4.955v-.688l-.55.413c-1.377 1.032-3.097 1.514-5.299 1.514-6.399 0-10.871-5.023-10.871-12.179 0-7.156 4.335-11.972 10.734-11.972 3.234 0 5.229 1.1 6.33 2.064l.344.275.206-.344c.482-.963 1.514-1.445 2.821-1.445h3.166zm-92.89 12.04c0-3.921-2.409-6.605-5.849-6.605-3.44 0-5.849 2.753-5.849 6.606 0 3.922 2.409 6.605 5.849 6.605 3.51 0 5.849-2.683 5.849-6.605zm6.743 0c0 7.226-5.298 12.455-12.592 12.455-7.294 0-12.523-5.23-12.523-12.454 0-7.225 5.298-12.454 12.523-12.454 7.294 0 12.592 5.23 12.592 12.454zm30-11.972c2.408 0 3.578 1.17 3.509 3.647v20.367h-6.743V10.321h3.234zm30.206 8.739v15.275h-3.234c-2.477 0-3.647-1.17-3.647-3.647V20.23c0-2.959-.825-4.06-2.958-4.06-2.684 0-4.817 1.583-5.574 4.197-.275.895-.412 1.79-.412 2.89v11.078h-6.881V10.321h3.096c1.927 0 3.165.757 3.51 2.202l.137.55.413-.412c1.238-1.307 3.509-2.89 7.018-2.89 5.642 0 8.601 3.234 8.532 9.289zm-39.358 8.807l3.922 6.537h-5.298c-1.995 0-3.096-.344-4.128-2.27l-3.785-7.157c-.275-.481-.825-.55-1.582-.55h-.62v9.977h-6.88V1.101h3.234c1.858 0 3.647.413 3.647 3.234v14.106h1.1c.826 0 1.377-.207 1.652-.62l4.816-7.43h7.776l-6.4 9.563a9.83 9.83 0 0 1-1.032 1.239l-.206.206.206.207c.344.344.689.757.964 1.307zm-54.495-5.573c0-3.922-2.408-6.606-5.849-6.606-3.44 0-5.848 2.753-5.848 6.606 0 3.922 2.408 6.605 5.848 6.605 3.51 0 5.849-2.683 5.849-6.605zm6.743 0c0 7.225-5.298 12.454-12.592 12.454-7.293 0-12.523-5.23-12.523-12.454 0-7.225 5.299-12.454 12.523-12.454 7.294 0 12.592 5.23 12.592 12.454zM111.371 3.99a3.994 3.994 0 0 1-3.991 3.99 3.994 3.994 0 0 1-3.99-3.99 3.994 3.994 0 0 1 3.99-3.99 3.994 3.994 0 0 1 3.99 3.99z"/></g><g><path fill="#b7adad" d="M195.591 25.597l2.821 4.679-.206.206c0 .069-3.578 4.335-10.046 4.335-7.5 0-12.936-5.298-12.936-12.523S180.729 9.77 188.297 9.77c3.578 0 8.808 1.514 8.808 5.642v3.165h-3.578c-.275 0-1.858-.137-2.34-1.789v-.137c-.206-.757-1.582-1.17-2.82-1.17-3.785 0-6.4 2.821-6.4 6.812 0 4.61 3.44 6.674 6.812 6.674 3.716 0 6.537-2.959 6.537-2.959zM254.834 9.84c5.298 0 7.982 3.096 7.913 9.082v15.276h-3.096c-2.409 0-3.51-1.101-3.51-3.51V20.023c0-3.027-.756-4.197-2.752-4.197-2.752 0-4.541 2.546-5.092 4.954-.206.895-.344 1.72-.344 2.89v10.596h-6.605V20.092c0-2.683-.826-4.06-2.615-4.197-2.89-.275-4.61 2.477-5.23 5.023-.206.963-.343 1.926-.343 2.82v10.597h-6.537V10.39h2.89c1.858 0 3.028.757 3.372 2.064l.275.895.619-.688c1.032-1.032 3.165-2.821 6.33-2.821 3.028 0 5.23 1.17 6.468 3.509l.413.688.482-.62a9.425 9.425 0 0 1 7.362-3.577zm-37.293 12.454c0-3.922-2.409-6.606-5.85-6.606-3.44 0-5.848 2.753-5.848 6.606 0 3.922 2.409 6.605 5.849 6.605 3.509 0 5.849-2.683 5.849-6.605zm6.743 0c0 7.225-5.299 12.454-12.592 12.454-7.294 0-12.523-5.23-12.523-12.454 0-7.225 5.298-12.454 12.523-12.454 7.293 0 12.592 5.23 12.592 12.454zM174.26 30.62a3.994 3.994 0 0 1-3.991 3.99 3.994 3.994 0 0 1-3.99-3.99 3.994 3.994 0 0 1 3.99-3.991 3.994 3.994 0 0 1 3.99 3.99z"/></g></g></g></svg>