<svg xmlns="http://www.w3.org/2000/svg" width="97" height="59" viewBox="0 0 97 59"><g><g><g><path fill="#b7adad" d="M25.91 2.61c7.31.049 14.76 3.487 19.11 11.103l-12.207 6.983c-1.789-2.87-4.335-3.97-6.709-3.99-4.32-.036-8.046 3.433-8.045 7.858-.002 4.552 3.736 7.854 7.826 7.923 2.444.041 5.419-1.32 6.93-4.019l12.206 7c-4.438 7.65-12.045 11.103-19.153 11.09-11.271-.018-21.874-9.03-21.873-21.975 0-12.877 10.645-22.045 21.916-21.972zM0 49.138h49.15V0H0z"/></g><g><path fill="#b7adad" d="M66.716 28.098l14.051 17.537h14.025V3.522H80.767v17.565L66.717 3.522H52.68l-.004 42.113h14.04z"/></g><g><path fill="#b7adad" d="M4.602 54.46c.498-.074.962.207 1.244.6l1.616-.924c-.42-.677-1.069-1.217-1.841-1.435-1.81-.502-3.606.566-3.96 2.498-.264 2.227 1.383 3.69 3.292 3.63a3.286 3.286 0 0 0 2.508-1.567l-1.616-.933c-.298.44-.738.622-1.152.61-.739-.036-1.343-.737-1.144-1.582.13-.475.562-.85 1.053-.896z"/></g><g><path fill="#b7adad" d="M31.301 56.855a1.331 1.331 0 1 1-.67-2.482 1.332 1.332 0 0 1 1.154.664l.005.008a1.332 1.332 0 0 1-.489 1.81zm1.861-2.633a2.91 2.91 0 0 0-1.775-1.35 2.91 2.91 0 0 0-2.223.298 2.913 2.913 0 0 0-1.363 1.782 2.933 2.933 0 0 0 4.303 3.29 2.934 2.934 0 0 0 1.066-4.006c-.002-.006-.005-.01-.008-.014z"/></g><g><path fill="#b7adad" d="M82.13 56.047a1.331 1.331 0 0 1-2.437.326 1.331 1.331 0 0 1 2.302-1.335c0 .002.002.003.003.005.176.306.223.662.132 1.004zm1.245-1.82a2.934 2.934 0 0 0-4.002-1.058 2.934 2.934 0 0 0-1.065 4.006 2.934 2.934 0 0 0 4.006 1.066 2.935 2.935 0 0 0 1.066-4.006l-.005-.008z"/></g><g><path fill="#b7adad" d="M10.427 56.221l.537-1.862.536 1.862zm-.962-3.517l-1.877 6h2.11l.308-1.006h1.921l.303 1.006h2.109l-1.877-6z"/></g><g><path fill="#b7adad" d="M18.252 55.458l-1.32.002v-1.006h1.322c.256.003.443.252.454.465.007.305-.225.534-.456.539zm2.434-.715c.001-1.076-.968-2.009-2.027-2.04h-3.715v6.001h1.988V56.95h.648l.89 1.754h2.211l-1.158-1.967c.892-.573 1.197-1.282 1.163-1.994z"/></g><g><path fill="#b7adad" d="M21.235 54.456h1.883v4.248h2.249v-4.248h1.88v-1.753h-6.012z"/></g><g><path fill="#b7adad" d="M45.166 55.199l-2.032-2.495h-1.983v6h1.983v-2.5l2.032 2.5h1.985v-6h-1.985z"/></g><g><path fill="#b7adad" d="M55.225 55.199l-2.031-2.495H51.21v6h1.984v-2.5l2.031 2.5h1.985v-6h-1.985z"/></g><g><path fill="#b7adad" d="M58.073 58.704h5.24v-1.602h-3.255v-.631h2.74v-1.403h-2.74v-.614h3.255v-1.75h-5.24z"/></g><g><path fill="#b7adad" d="M63.976 54.456h1.883v4.248h2.248v-4.248h1.882v-1.753h-6.013z"/></g><g><path fill="#b7adad" d="M75.02 55.33l-1.012-2.412-.994 2.417-.506-2.632H70.49c.022.135 1.162 6 1.162 6h1.635l.721-1.62.711 1.62h1.663l1.143-6h-1.998z"/></g><g><path fill="#b7adad" d="M87.861 55.458l-1.32.002v-1.006h1.322c.256.003.443.252.454.465.006.305-.226.534-.456.539zm2.434-.715c.001-1.076-.968-2.009-2.027-2.04h-3.715v6.001h1.987l.005-1.754h.644l.89 1.754h2.211l-1.159-1.967c.893-.573 1.198-1.282 1.164-1.994z"/></g><g><path fill="#b7adad" d="M97 52.703h-2.559l-1.496 1.945v-1.945h-2.008v6.001h2.008v-2.233l1.496 2.233H97l-2.322-3.14z"/></g><g><path fill="#b7adad" d="M38.084 56.855a1.33 1.33 0 1 1-1.334-2.3 1.33 1.33 0 0 1 1.334 2.3zm1.861-2.633a2.935 2.935 0 0 0-3.998-1.053 2.935 2.935 0 0 0-1.066 4.006 2.933 2.933 0 0 0 4.006 1.065 2.934 2.934 0 0 0 1.065-4.005l-.007-.013z"/></g></g></g></svg>