<svg xmlns="http://www.w3.org/2000/svg" width="230" height="45" viewBox="0 0 230 45"><g><g><g><path fill="#b7adad" d="M40.241 33.978l13.306-8.494-13.306-8.495 13.306-8.494L40.241 0 26.994 8.495l13.307 8.435-13.307 8.494zM26.935 45.146l13.306-8.494-13.306-8.495-13.306 8.495zM13.688 0L.382 8.495l13.306 8.435L.382 25.424l13.306 8.554 13.306-8.494-13.306-8.495 13.306-8.494z"/></g><g><path fill="#b7adad" d="M205.618 36.592h6.95l5.11-7.544 5.227 7.544h6.712l-8.554-11.88 8.138-10.871h-6.772l-4.692 6.89-4.574-6.89h-6.891l8.02 10.99zm-10.633-4.514c-3.386 0-5.524-2.317-5.524-6.416v-.594c0-4.455 2.198-6.772 5.524-6.772 3.386 0 5.525 2.554 5.525 6.772v.594c0 4.158-2.139 6.416-5.525 6.416zm0 5.227c6.832 0 11.524-4.04 11.524-11.524v-.654c0-7.663-4.752-11.82-11.524-11.82-6.653 0-11.524 4.157-11.524 11.82v.654c0 7.485 4.158 11.465 11.524 11.524zm-20.137-11.88c0 4.514-2.08 6.712-5.525 6.653-3.267 0-5.465-2.495-5.465-6.713v-.475c0-3.98 2.258-6.594 5.525-6.594 3.208 0 5.465 2.376 5.465 6.534zm-11.05 7.068c1.189 2.97 3.684 4.753 7.545 4.871 5.822 0 9.623-4.336 9.623-11.88v-.713c0-7.604-4.04-11.346-9.504-11.405-3.624 0-6.178 1.603-7.425 4.574V6.237h-5.822v30.414h5.109l.475-4.158zm-14.79-6.831c0 4.277-2.139 6.475-5.525 6.534-3.326 0-5.465-2.554-5.465-6.593v-.416c0-4.218 2.198-6.772 5.525-6.772 3.148 0 5.465 2.257 5.465 6.772zm-16.633-11.821l-.119 30.77h5.822V33.087c1.247 2.614 3.682 4.218 7.306 4.218 5.406 0 9.623-3.98 9.623-11.465v-.653c0-7.723-3.801-11.88-9.623-11.88-3.742 0-6.297 1.96-7.485 4.87l-.594-4.336zm-14.732 18.237c-3.386 0-5.525-2.317-5.525-6.416v-.594c0-4.455 2.198-6.772 5.525-6.772 3.386 0 5.524 2.554 5.524 6.772v.594c0 4.158-2.138 6.416-5.524 6.416zm.06 5.227c6.95 0 11.523-4.04 11.523-11.524v-.654c0-7.663-4.752-11.82-11.524-11.82-6.653 0-11.524 4.157-11.524 11.82v.654c0 7.485 4.158 11.465 11.524 11.524zM90.376 13.84h.06v-.06h-.06zm.06 0v22.81h5.94V26.197c0-4.812 1.188-6.535 6.059-6.535h2.495v-6.059h-1.485c-4.218 0-6.594 1.901-7.485 5.525l-.772-5.287zm-16.099-.238c3.98 0 6.713 2.555 6.713 8.198v1.485c0 5.643-2.614 8.197-6.534 8.197h-4.574v-17.88zM63.943 36.651h10.99c7.009 0 12.296-4.098 12.296-13.246v-1.901c0-9.03-5.644-13.01-12.534-13.01H63.943z"/></g></g></g></svg>