<svg xmlns="http://www.w3.org/2000/svg" width="142" height="39" viewBox="0 0 142 39"><g><g><g><path fill="#b7adad" d="M96.355 29.131c2.805.137 5.604.294 8.398.474V35.2c-4.814-.313-9.645-.56-14.494-.739V.422h6.096v28.71M32.247 6.01v9.429h7.292v5.584h-7.292v8.935c2.79-.209 5.586-.396 8.387-.559v5.592c-4.831.281-9.659.63-14.48 1.047V.424h14.492V6.01zM5.75 38.202c-1.93.245-3.862.498-5.786.764h-.036V.424H6l7.756 22.013V.424h5.824V36.64c-2.22.221-4.433.455-6.644.703L5.75 16.95v21.252m46.423-3.761zm0 0V6.01H46.5V.426h17.42v5.587h-5.673v28.247c-2.027.05-4.05.11-6.072.182zm18.845-.341c-.395-.002-.79.005-1.184.005V.423h14.492v5.588h-8.398v9.429h7.291v5.58h-7.292v13.105a604.72 604.72 0 0 0-4.909-.025m45.597 1.994c-2.02-.176-4.046-.344-6.07-.5V.424h6.07v35.67m4.592.422l7.41-18.301-6.27-17.79h6.073l3.444 9.774 3.922-9.687.064-.089H142l-7.261 17.932 7.259 20.601c-2.117-.291-4.24-.57-6.365-.837l-4.14-11.748-4.357 10.756c-1.973-.213-3.95-.42-5.929-.611z"/></g></g></g></svg>