<svg xmlns="http://www.w3.org/2000/svg" width="122" height="75" viewBox="0 0 122 75"><g><g><g><path fill="#f8ee3f" d="M15.898 20.825a3.692 3.692 0 0 1-.984-1.487c-.164-.475-.376-1.068-.376-1.572.01-2.271 1.336-3.958 2.763-4.74.648-.354.89-.597.988-.722a.468.468 0 0 0-.15-.038c-1.942 0-2.938-.755-3.427-1.394-.463-.598-.7-1.37-.7-2.213 0-.41.058-.839.172-1.277.547-.905 1.067-.656 1.386-.194.203.29 1.593 1.276 3.307 1.432 1.247.119 1.918.728 2.268 1.216.403.564.558 1.243.558 1.821 0 .237-.027.459-.078.656-.188.762-.99 1.449-2.108 2.324l-.635.526c-.928.812-1.439 1.716-1.439 2.482 0 .192.034.378.098.55.027.071.06.14.097.204.415.703 1.587 1.143 3.288.548.786-.273 2.3-1.225 3.224-2.141 1.087-1.085 2.538-1.345 3.935-1.456 1.212-.091 1.958-.388 2.484-.979 1.552-1.75 3.046-1.995 4.445-2.1.535-.04.564-.079.634-.173.77-1.026 1.562-1.57 2.273-1.886.542-.241 1.036-.35 1.441-.44l.492-.12.123-.044c.778-.25 1.381-.458 2.965-1.528l.067-.043.067-.042.068-.04.068-.039.068-.035.002-.001.066-.035h.003l.066-.033h.003l.067-.032.003-.001.067-.028.003-.001.067-.028h.004l.068-.026.003-.002.067-.024.07-.024h.005l.067-.022.004-.001.068-.02h.004l.067-.02h.005l.067-.016.007-.002.066-.015.005-.002.068-.013.005-.002.067-.012.006-.001.067-.011.006-.001.066-.01.007-.001.067-.008.007-.001.065-.007h.007l.066-.007h.008l.066-.005.007-.001.065-.004h.007l.066-.003.073-.002h.007l.065-.001H45.217l.008.001h.007c.047.001.093.004.14.006l.063.004.009.001.062.005h.01l.062.007h.01l.062.007h.01l.062.008.01.002.06.007.011.002.061.01h.01l.061.01.011.002.06.01.01.003.06.01.01.003c.095.018.189.039.28.061l.057.015.012.003c.092.024.183.049.272.076l.054.016.013.004c.177.056.35.12.516.186l.047.02.062.025C50.786 3.36 56.14.299 62.227.022V.021a20.407 20.407 0 0 1 1.789 0h.001l.294.015c5.89.354 11.076 3.32 14.416 7.754a5.913 5.913 0 0 1 1.527-.322h.014l.05-.004.053-.003h.026l.052-.002h.013l.052-.001H80.722l.053.003h.012l.052.003h.013l.053.004h.01l.054.005h.01l.054.006.01.001a3.9 3.9 0 0 1 .386.06l.057.011.008.002.056.013.007.002.057.014.007.002.057.015.007.002.058.016.005.002.058.018.006.001.058.02.005.001.063.022.059.02.004.003.058.022.004.002.06.024.003.002c.103.043.205.09.305.145l.002.002.06.031v.001l.06.034h.001l.06.037.06.037.059.039c1.09.742 1.721 1.068 2.26 1.282.241.096.466.169.704.246l.126.044.496.12c.27.06.577.128.91.237.834.272 1.83.799 2.797 2.09.07.094.101.132.639.173 1.397.104 2.889.35 4.448 2.1.521.59 1.264.887 2.475.979 1.406.11 2.852.37 3.937 1.455.925.916 2.437 1.869 3.225 2.141 1.7.596 2.878.155 3.283-.547a1.41 1.41 0 0 0 .18-.483c.015-.09.023-.18.023-.271 0-.766-.511-1.67-1.437-2.483l-.115-.096-.525-.43c-1.114-.875-1.917-1.561-2.11-2.323a2.652 2.652 0 0 1-.073-.656c0-.579.158-1.258.553-1.822.352-.487 1.031-1.097 2.27-1.215 1.722-.157 3.105-1.143 3.307-1.432.324-.463.84-.711 1.384.193.116.439.174.868.174 1.278 0 .848-.237 1.614-.7 2.213-.492.638-1.484 1.393-3.43 1.393a.458.458 0 0 0-.147.038c.097.126.338.369.988.723a5.43 5.43 0 0 1 2.766 4.74c0 .503-.21 1.096-.38 1.571a3.742 3.742 0 0 1-.978 1.487c-.804.747-2.143 1.333-4.374 1.2a12.12 12.12 0 0 1-.703-.064c-.058 1.126-.366 2.463-.8 3.138-.133.212-.159.354-.159.424 0 .03.003.046.003.059.014.004.99.58.99.58l.157.08s.092.043.104.053c.014-.005.337-.02.337-.02l.064-.008.006-.001c.61-.058 1.543-.357 1.939.75.103.293.167.549.226.775.121.463.225.807.63 1.12 0 0 .2-.173.428-.375.175-.155.348-.314.516-.477.283-.29.805-.142 1.182 0 .38.144.852.473 1.186.663.335.188.52.426.616.711.101.284.334.473.69.66.342.196.834.82.834 1.664 0 .129.015.24.051.357.025.077.059.158.106.25.479.967.094 1.454-.184 1.659-.373.28-1.032.395-1.65.294l.005.158-.904-.12c-.35-.044-.812.046-1.088.103l-.065.017a1.872 1.872 0 0 1-1.958-.857c-.017-.029-.034-.057-.05-.087-.242-.424-.617-.817-.8-.926a3.178 3.178 0 0 1-1.185.121c-.462-.047-.997-.224-1.54-.674a4.092 4.092 0 0 1-.27-.247c-.798-.8-1.851-.965-2.513-.863l-.394.07c-.815.147-1.833.335-2.773-.238-.234-.143-.57-.29-.902-.43-.853-.371-1.735-.754-1.855-1.562-.02-.144-.176-.407-.305-.617a5.148 5.148 0 0 1-.33-.605 1.754 1.754 0 0 1-.163-.658 2.88 2.88 0 0 1-1.16.058l-.37-.058c-.625-.106-1.933-.321-2.349-.17-.829.3-3.438.444-4.153.28l-.511-.11a6.264 6.264 0 0 1-.784.682c.524.029.984-.036 1.3.045l.658.174c.21-.062.722-.055 1.014-.029l.77.058.878.084c.423.085.872.268.795 1.097-.03.256-.172.617-.388.83-.118.13-.577.795-.678 1.004l-.033.066c-.178.38-.443.73-1.215.73a2.78 2.78 0 0 0-.293.012c-.024.063-.087.178-.087.178-.174.395-.425.945-.904 1.264l-.128.092c-.385.274-1.027.727-2.008.37l-.338-.12c-.856-.309-2.15-.771-2.804-1.128l-.091-.05c-.609-.334-.743-.4-.964-.37l-.123.02c-.467.065-1.346.183-1.954-.825l-.056-.087a19.527 19.527 0 0 1-12.219 7.715l-.022.004c-.17.031-.342.06-.514.087l-.064.01-.235.034a7.436 7.436 0 0 1-.025.004l-.247.033h.005-.008l-.168.022-.264.028-.183.02-.36.03-.113.007-.015.001h.017a26.62 26.62 0 0 1-.017 0l-.306.02h-.01l-.12.006c-.128.007-.255.011-.383.015l-.13.002c-.275.007-.55.007-.824 0l-.122-.002a31.222 31.222 0 0 1-.369-.014l-.15-.008c-.103-.006-.207-.011-.31-.02l-.133-.008-.367-.031-.181-.019-.24-.026-.134-.015a12.138 12.138 0 0 1-.378-.053l-.152-.022-.268-.042-.139-.023c-.108-.02-.216-.038-.323-.059l-.233-.046-.12-.025c-.159-.034-.319-.069-.477-.107l-.042-.01-.249-.06-.128-.033c-.148-.038-.296-.08-.443-.12l-.053-.016a19.542 19.542 0 0 1-10.66-7.696l-.332.506c-.602 1.008-1.48.89-1.953.825l-.123-.02c-.22-.03-.36.036-.962.37l-.097.05c-.65.357-1.94.82-2.8 1.128l-.339.12c-.981.357-1.624-.096-2.002-.37l-.133-.092c-.48-.318-.728-.868-.904-1.263 0 0-.058-.116-.086-.179a2.804 2.804 0 0 0-.294-.011c-.765 0-1.037-.35-1.213-.731l-.031-.066c-.104-.209-.557-.874-.682-1.004a1.51 1.51 0 0 1-.387-.83c-.08-.829.376-1.012.795-1.096l.879-.085.771-.058c.287-.026.8-.033 1.01.029l.658-.173c.313-.082.778-.017 1.297-.046a7.466 7.466 0 0 1-.781-.682l-.512.11c-.718.164-3.322.02-4.146-.28-.418-.151-1.725.063-2.352.17l-.376.058c-.384.059-.776.04-1.152-.058-.02.472-.276.9-.495 1.263-.127.21-.289.473-.308.617-.113.808-1.006 1.19-1.857 1.562-.33.14-.662.287-.898.43-.933.573-1.955.385-2.772.238l-.396-.07c-.658-.101-1.712.063-2.512.863-1.223 1.22-2.44.952-2.994.8-.183.109-.561.502-.8.926a1.876 1.876 0 0 1-2.01.945l-.068-.018c-.273-.057-.729-.147-1.078-.103l-.91.12.01-.158c-.621.1-1.282-.015-1.657-.294-.276-.205-.662-.692-.174-1.659.113-.231.152-.392.152-.607 0-.844.487-1.468.83-1.663.359-.188.595-.376.69-.66.095-.285.28-.524.616-.712.332-.19.805-.518 1.183-.663.378-.142.9-.289 1.186 0 .287.28.944.85.944.85.604-.465.546-1.002.859-1.894.39-1.106 1.326-.808 1.934-.75l.07.01s.327.015.337.02c.017-.01.108-.054.108-.054l.152-.08.99-.58c.005-.012.005-.03.005-.058 0-.07-.024-.212-.156-.424-.436-.676-.745-2.013-.8-3.138-.158.018-.31.034-.46.046-2.375.19-3.786-.41-4.612-1.184zm48.276 18.188h.022-.029zm1.659-.16l.028-.004a6.874 6.874 0 0 1-.028.004zM81.432 7.54a3.917 3.917 0 0 0-.387-.06m1.388.42a3.468 3.468 0 0 0-.306-.146M64.611 38.985l.36-.03m-.603.047zm-.705.032c.128-.003.256-.008.383-.014m-1.337.016c.274.007.549.007.823 0m-1.313-.016c.122.006.245.01.368.014m-.83-.04c.103.007.207.013.31.018m-.81-.059c.123.011.246.022.368.031m-1.3-.143c.125.02.251.036.377.052m-1.26-.199l.324.06"/></g><g><g><path fill="#cc2729" d="M79.848 14.439s-.836.987-.947 3.066c0 0-.799-2.259.284-3.767 0 0 .292-.524.605-.044.14.242.196.496.058.745zm-9.328 9.99s-.828-.135-.594-1.79c.027-.204.113-.397.247-.554 0 0 1.013-1.208 1.203-1.579 0 0 .425-.533.877.167.038.124.081.246.13.366.222.44.446.88.672 1.32 0 0 .11.183.107.348 0 0-.468.11-.935-.793 0 0-.176-.315-.31-.302 0 0-.077.01-.177.185 0 0-.657.72-.824.852-.45.352-.413 1.336-.396 1.78zm1.878 4.151s-.746-.119-.585-1.063c0 0 .108-.53.993 0 0 0 .47.253.6.841.024.212-.026.282-.218.287 0 0-.641-.014-.79-.065zm39.263 2.805s-.192.143-.09.424c0 0 .494 1.35.47 1.803 0 0 1.093.195 1.243-.343 0 0 .03-.208-.148-.51 0 0-.185-.281-.233-.796 0 0 .016-1.294-.823-.951a1.534 1.534 0 0 0-.419.373zm-1.331-2.148c-.181-.15-.445-.235-.679-.18-.529.113-.209.571-.209.571.215.4.914 1.076.914 1.076.622.466 1.113-.089 1.113-.089.46-.453-.14-.673-.14-.673-.347-.141-1-.705-1-.705zm-6.395-8.097c1.315.23 2.791.36 4.068-.082 3.322-1.327 1.96-4.763 1.96-4.763-.609-1.963-1.957-2.552-1.957-2.552-.766-.288-1.337-1.079-1.337-1.079-.407-.924.758-1.096.758-1.096 4.47.066 3.33-3.943 3.33-3.943-1.02 1.273-3.54 1.76-3.54 1.76-2.01.037-2.335 1.456-2.335 1.456-.615 1.469.727 2.414.727 2.414 1.652 1.221 2.62 2.39 2.62 2.39 1.527 2.29.192 3.556.192 3.556-2.579 2.446-6.903-1.326-6.903-1.326-1.714-2.018-4.345-1.75-4.345-1.75-1.614-.193-2.43-.988-2.43-.988-1.755-2.345-4.138-2.057-4.138-2.057-1.085-.131-1.184-.476-1.184-.476-1.147-1.869-3.838-2.182-3.838-2.182-1.311-.33-2.88-1.398-2.88-1.398-2.271-1.815-5.415.448-5.415.448-.59.63-1.397 1.217-1.397 1.217-1.783 1.25-2.6 2.21-2.6 2.21-.622.631-1.457 1.664-1.457 1.664-1.1.948-1.806 2.309-1.806 2.309-1.054 1.272-.941 2.906-.941 2.906.002.346-.338 1.597-.338 1.597-.086.333-.408 1.757-.408 1.757-.632.853-.685 2.37-.685 2.37-1.354 1.004-1.757 2.354-1.757 2.354-.651.997-2.036 1.532-2.036 1.532 1.764.622 2.99-1.23 2.99-1.23.357-.866 1.342-1.812 1.342-1.812.388-.388.565-.256.565-.256.306.113-.011.548-.011.548-1.039 1.31-1.107 2.252-1.107 2.252-.513 1.11-2.497 1.926-2.497 1.926 2.492.544 4.032-1.522 4.032-1.522.217-.494.858.015.858.015.843.932 2.109.788 2.109.788.414-.082.738-.047.738-.047.5-.025 1.511.337 1.511.337.266.094 1.061.312 1.061.312.524.182.725.182.725.182.195-.058.302.029.302.029.406.113.662-.243.662-.243.202-.247.308-1.016.308-1.016-.042-.665-.613-1.162-.613-1.162-.219-.245-.16-.273-.16-.273.2-.265.769-.002.769-.002.42.147.216-.466.216-.466-.083-.637-1.032-1.302-1.032-1.302-.307-.218-.339-.592-.339-.592-.043-.47-.546-1.186-.546-1.186-.24-.298.18-.196.18-.196.323.088 1.993.333 1.993.333.554.395 1.895 0 1.895 0-1.694-2.083-.632-4.131-.632-4.131-.008.908.534 2.38.534 2.38.394 1.262 1 1.445 1 1.445.225.155 1.485.44 1.485.44.506.192.193.604.193.604-.15.097-.43.664-.43.664-.13.423-1.028 1.839-1.028 1.839-.382.316-.293.857-.293.857-.03.52.43 1.49.43 1.49.115.273-.037.231-.037.231-.086-.008-.436-.215-.436-.215-.203-.12-.452-.662-.452-.662a9.74 9.74 0 0 0-.266-.452c-.151-.16-.189-.542-.189-.542-.028-.546.533-1.405.533-1.405.416-.59.983-2.038.983-2.038l-.824-.06c-.274.159-.524.546-.524.546l-.617 1.45c-.051.25-.378.595-.378.595-.347.417-.268.828-.268.828-.027.414.164.743.164.743l.865 1.339c.345.66 1.182.461 1.182.461.478-.162 1.082.176 1.082.176.486.363 3.277 1.388 3.277 1.388.578.324 1.195.118 1.195.118.659-.224 1.048-.926 1.048-.926.426-1.403 1.18-1.029 1.18-1.029.544.083.612-.31.612-.31.238-.458.816-1.228.816-1.228.425-.462-.152-.61-.152-.61l-1.69-.137c-.901-.068-1.934 2.145-1.934 2.145-.258.599-1.06.346-1.06.346-2.145-.762-2.393-1.043-2.393-1.043-.027-2.052 1.59-2.64 1.59-2.64 1.812-.657 2.474-2.846 2.474-2.846.283-.377.53.209.53.209.088.818-.36 1.503-.36 1.503 1.723.22 3.727-.256 3.727-.256 1.303-.223 2.906.16 2.906.16 1.058.166 1.63-.283 1.63-.283.983-.587.46-3.616.46-3.616-.058-.56.236-.47.236-.47.763.686.589 3.578.589 3.578 1.598 3.392 5.044 3.291 5.044 3.291.7-.113 1.536.065 1.536.065 2.559.47 3.723 2.458 3.723 2.458-.41.166-.699-.25-.699-.25-2.108-2.278-4.51-1.734-4.51-1.734-1.671.27-2.505-.062-2.505-.062-1.523-.455-2.42-1.963-2.42-1.963l-.99.011c.267.309.632 1.234.632 1.234.062.658.663.835.663.835.491.17 1.8.854 1.8.854.648.478 2.723.058 2.723.058 1.843-.293 3.147 1.132 3.147 1.132.95.982 2.294.532 2.294.532.67-.233 1.572 1.313 1.572 1.313.468.86 1.512.51 1.512.51.425-.154 1.078-.068 1.078-.068.007-.423-.131-.974-.131-.974-.253-.852-.636-.973-.636-.973-.512-.021-.77-.504-.77-.504-.24-.69-1.033-.871-1.033-.871-.996-.443-1.6-1.826-1.6-1.826a10.83 10.83 0 0 1-.532-1.263c-.272-.36-1.086-.158-1.086-.158-.59.045-.767-.087-.767-.087l-1.323-.769c-.664-.582-.024-1.488-.024-1.488.863-1.688.665-3.604.665-3.604zM45.832 14.44c-.138-.25-.081-.503.058-.745.313-.48.606.044.606.044 1.082 1.508.283 3.767.283 3.767-.111-2.079-.947-3.066-.947-3.066zm9.328 9.99c.017-.444.054-1.428-.396-1.78-.166-.132-.823-.852-.823-.852-.1-.174-.177-.185-.177-.185-.136-.013-.31.302-.31.302-.468.903-.935.793-.935.793-.004-.165.106-.349.106-.349.226-.438.45-.878.671-1.32.068-.156.131-.365.131-.365.452-.7.878-.167.878-.167.19.371 1.202 1.58 1.202 1.58.225.266.247.554.247.554.234 1.654-.594 1.788-.594 1.788zm-2.668 4.216c-.192-.005-.241-.075-.218-.287.129-.588.6-.842.6-.842.885-.528.993.001.993.001.162.944-.585 1.063-.585 1.063-.149.051-.79.065-.79.065zM13.6 31.012c-.839-.343-.823.951-.823.951-.048.515-.233.796-.233.796-.178.302-.149.51-.149.51.152.538 1.243.343 1.243.343-.023-.453.47-1.803.47-1.803.104-.281-.09-.424-.09-.424a1.532 1.532 0 0 0-.418-.373zm.75-1.07s-.599.22-.138.674c0 0 .492.554 1.113.088 0 0 .699-.675.913-1.076 0 0 .32-.458-.209-.571-.234-.055-.498.03-.678.18 0 0-.652.564-1 .705zm7.395-8.802s-.198 1.916.665 3.604c0 0 .64.906-.024 1.488l-1.322.769s-.178.132-.768.087c0 0-.814-.202-1.087.158 0 0-.236.692-.532 1.263 0 0-.602 1.383-1.598 1.826 0 0-.795.182-1.035.87 0 0-.256.484-.77.505 0 0-.381.121-.635.973 0 0-.138.551-.13.974 0 0 .652-.086 1.077.068 0 0 1.045.35 1.512-.51 0 0 .903-1.546 1.572-1.313 0 0 1.345.45 2.294-.532 0 0 1.305-1.425 3.148-1.132 0 0 2.075.42 2.723-.058 0 0 1.309-.685 1.8-.854 0 0 .6-.177.663-.835 0 0 .365-.925.63-1.234l-.99-.01s-.896 1.507-2.42 1.962c0 0-.832.333-2.505.062 0 0-2.4-.544-4.51 1.734 0 0-.287.416-.699.25 0 0 1.166-1.987 3.724-2.458 0 0 .837-.178 1.536-.065 0 0 3.445.101 5.043-3.291 0 0-.173-2.892.59-3.577 0 0 .295-.09.236.469 0 0-.524 3.03.46 3.616 0 0 .572.45 1.63.283 0 0 1.603-.383 2.906-.16 0 0 2.004.476 3.726.256 0 0-.447-.685-.36-1.503 0 0 .247-.586.53-.21 0 0 .663 2.19 2.474 2.846 0 0 1.617.59 1.59 2.64 0 0-.247.282-2.392 1.044 0 0-.801.253-1.06-.346 0 0-1.033-2.213-1.933-2.145l-1.69.137s-.577.148-.153.61c0 0 .58.77.816 1.229 0 0 .069.392.612.309 0 0 .755-.374 1.18 1.03 0 0 .39.701 1.048.925 0 0 .617.206 1.195-.118 0 0 2.792-1.025 3.278-1.388 0 0 .603-.338 1.082-.176 0 0 .838.2 1.182-.461l.865-1.339s.19-.33.164-.743c0 0 .078-.41-.268-.828 0 0-.326-.345-.378-.595l-.617-1.45s-.25-.387-.524-.546l-.823.06s.566 1.448.981 2.038c0 0 .562.859.533 1.405 0 0-.037.382-.188.542 0 0-.19.304-.266.452 0 0-.25.541-.453.662 0 0-.35.207-.435.215 0 0-.152.042-.04-.23 0 0 .462-.972.432-1.49 0 0 .09-.542-.293-.858 0 0-.897-1.416-1.026-1.84 0 0-.281-.566-.431-.663 0 0-.313-.412.192-.604 0 0 1.26-.285 1.486-.44 0 0 .606-.183 1-1.445 0 0 .542-1.472.534-2.38 0 0 1.062 2.048-.632 4.13 0 0 1.34.396 1.895 0 0 0 1.67-.244 1.993-.332 0 0 .42-.102.18.196 0 0-.504.716-.546 1.186 0 0-.033.374-.34.592 0 0-.948.665-1.032 1.302 0 0-.203.613.216.466 0 0 .569-.263.77.002 0 0 .058.028-.16.273 0 0-.57.497-.614 1.162 0 0 .106.769.307 1.016 0 0 .257.356.663.243 0 0 .108-.087.302-.029 0 0 .2 0 .725-.182 0 0 .795-.218 1.06-.312 0 0 1.012-.362 1.511-.337 0 0 .325-.035.739.047 0 0 1.265.144 2.108-.788 0 0 .642-.509.86-.015 0 0 1.539 2.066 4.03 1.522 0 0-1.982-.816-2.496-1.926 0 0-.069-.943-1.107-2.252 0 0-.318-.435-.012-.548 0 0 .178-.132.564.256 0 0 .987.946 1.343 1.813 0 0 1.225 1.85 2.991 1.229 0 0-1.386-.535-2.038-1.532 0 0-.402-1.35-1.756-2.354 0 0-.053-1.517-.684-2.37 0 0-.322-1.424-.408-1.757 0 0-.34-1.251-.338-1.597 0 0 .112-1.634-.941-2.906 0 0-.706-1.361-1.806-2.31 0 0-.835-1.032-1.457-1.664 0 0-.817-.958-2.6-2.209 0 0-.807-.586-1.398-1.217 0 0-3.144-2.263-5.415-.448 0 0-1.568 1.067-2.878 1.398 0 0-2.693.313-3.84 2.182 0 0-.099.345-1.184.476 0 0-2.383-.288-4.138 2.057 0 0-.816.795-2.43.989 0 0-2.632-.27-4.346 1.749 0 0-4.324 3.772-6.902 1.326 0 0-1.336-1.265.191-3.556 0 0 .969-1.169 2.621-2.39 0 0 1.341-.945.727-2.414 0 0-.325-1.419-2.334-1.456 0 0-2.522-.487-3.542-1.76 0 0-1.138 4.01 3.33 3.943 0 0 1.165.172.758 1.096 0 0-.57.791-1.337 1.079 0 0-1.348.59-1.957 2.552 0 0-1.361 3.436 1.96 4.763 1.278.441 2.755.311 4.07.082z"/></g></g><g><path fill="#cc2729" d="M31.568 62.89s-.277-3.137-3.276-3.137c-3 0-3.37 3.137-3.37 3.137zm-3.185-6.922c8.954 0 8.584 8.723 8.584 8.723v1.384H24.83c0 1.984 1.66 3.692 3.923 3.692 2.26 0 3.415-2.169 3.415-2.169l4.291 2.122c-1.984 3.001-4.66 4.2-7.66 4.2-9.323 0-9.508-7.753-9.508-8.721 0-.97.14-9.23 9.092-9.23zm24.23 8.768c0-4.154-4.246-4.292-4.246-4.292s-3.784.138-3.784 4.385c0 4.246 3.46 4.2 3.738 4.2.277 0 4.292-.139 4.292-4.293zm-.23-19.579h5.353v28.219h-5.26v-2.131s-2.031 2.4-5.678 2.4c-3.645 0-7.892-2.493-7.892-9.047 0-6.552 4.985-8.63 7.937-8.63 2.956 0 5.54 1.985 5.54 1.985zm35.49 11.688h5.354v9.46s.186 3.186 3.185 3.186c2.998 0 2.954-3.186 2.954-3.186V56.89h5.399v9.74s.692 7.614-8.215 7.614-8.676-6.692-8.676-7.891zm20.008-11.688h5.284v28.218h-5.284zm8.976 0h5.215v28.218h-5.215zM77.143 68.66s3.567-.442 3.567-3.567-2.716-3.539-3.568-3.539h-3.253v-4.756h1.667s2.893.28 2.893-2.893-3.637-2.9-3.637-2.9h-2.676V68.66zm9.159-2.83c0 7.452-8.246 7.545-8.246 7.545H66.551V46.281h9.34c5.578 0 8.197 3.25 8.197 6.857 0 3.605-2.445 5.507-2.445 5.507 2.98 1.203 4.66 2.86 4.659 7.185zM6.784 45.702c6.46 0 11.307 1.867 11.307 8.835 0 6.97-6.415 7.523-6.415 7.523l7.799 11.316h-6.553l-5.585-8.824v-6.37h1.339s3.646.093 3.646-3.645c0-3.74-4.107-3.554-4.107-3.554h-2.63v22.392H0V45.7z"/></g></g></g></svg>