<svg xmlns="http://www.w3.org/2000/svg" width="157" height="47" viewBox="0 0 157 47"><g><g><g><path fill="#b7adad" d="M79.026 35.988zm0 0c-.462-.016-.696-.233-.746-.68-.05-.448-.21-24.078.027-34.327a.388.388 0 0 1 .306-.377C79.578.35 82.588.318 83.647.46c.235.031.382.16.396.504.166 3.976.278 29.158.016 34.447a.612.612 0 0 1-.646.584c-1.234.002-4.018.005-4.387-.007zm71.007.025c-.193.007-.45-.006-.669-.318-.095-.135-1.455-2.051-2.912-4.21-1.586-2.35-3.297-4.98-3.897-5.79-.124-.167-.315-.175-.436-.057-.505.49-1.69 1.76-2.118 2.22-.1.107-.16.428-.16.428l-.09 7.237s-.074.42-.671.42c-1.215.022-3.816.026-4.867-.034a.508.508 0 0 1-.473-.5c-.144-3.772-.49-30.739-.247-34.413.026-.254.308-.555.603-.588 1.054-.062 3.729-.046 4.787.01.206.01.572.24.58.544.116 2.298.18 16.265.194 19.527.002.437.178.504.482.2 1.683-1.693 7.323-7.354 9.171-9.077.398-.41.947-.443 1.402-.347 1.08.228 2.979.664 4.153 1.014.608.181 1.037.514.322 1.289-1.849 1.99-6.765 6.81-7.94 7.96-.164.16-.172.363-.021.57.617.848 2.528 3.054 4.34 5.563 1.97 2.728 3.852 5.775 4.568 6.848.177.265.064.532-.254.605-1.281.293-5.456.87-5.848.899zm-39.788-12.307c-.04-6.785 4.689-12.51 12.366-12.56 4.79-.031 8.27 2.14 8.884 3.165.125.24.06.441-.026.683-.405.857-1.43 2.51-2.16 3.448-.31.4-.648.058-1.04-.203-1.088-.725-3.156-1.612-5.192-1.612-3.692 0-6.442 2.532-6.41 7.19.028 4.47 2.661 6.927 6.423 7.016 1.967.049 3.872-1.081 4.897-2.007.322-.281.655-.14 1.023.147.721.738 1.757 1.877 2.33 2.66.377.436.095.863-.04 1.034-1.557 1.97-4.565 3.63-8.546 3.652-8.335.058-12.47-5.802-12.508-12.612M97.719 11.162c6.568.136 10.037 3.215 10.36 10.58.134 3.038-.087 11.51-.14 13.62-.007.303-.11.513-.518.52-1.082.044-3.58.027-4.728.012-.58-.028-.647-.316-.654-.617l-.034-1.256c-.007-.253-.244-.245-.305-.18-1.54 1.644-4.063 2.438-6.746 2.438-4.078 0-8.143-2.398-8.13-7.15.012-4.864 3.461-7.264 7.251-7.83 2.427-.361 5.162-.04 7.234.783.132.053.403-.024.405-.212.009-.62-.021-1.801-.14-2.361-.305-1.427-1.495-2.575-3.995-2.884a7.694 7.694 0 0 0-1.553-.043c-1.987.156-4.38 1.706-5.37 2.286-.233.136-.598.036-.716-.116-.578-.747-2.031-2.93-2.146-3.28-.114-.348.047-.641.25-.824l.001.001c1.575-1.41 4.698-3.603 9.674-3.487zm1.533 14.093c-3.368.044-6.456.964-6.545 3.596-.001 2.09 1.693 3.115 4.071 2.98 2.281-.22 4.02-1.208 4.787-2.521.284-.487.327-2.307.31-3.085-.005-.166-.332-.48-.476-.54-.715-.301-1.245-.394-2.148-.43m-43.388-6.593c0-4.63 3.376-7.864 9.51-7.864 3.745 0 6.808 1.195 8.467 2.366.238.167.662.573.408 1.327-.326.813-.923 2.035-1.352 2.828-.249.463-.886.402-1.212.237-1.182-.6-3.121-1.613-4.902-1.8a10.43 10.43 0 0 0-1.359-.059c-1.568.035-2.879.58-3.34 1.777-.09.226-.141.467-.15.71-.043 1.578 2.152 2.148 4.811 2.605 4.943.847 8.683 2.296 8.683 7.384 0 4.32-3.434 8.225-10.162 8.106-4.435-.09-7.582-1.589-9.268-3.043-.058-.05-.7-.703-.355-1.49.393-1.012 1.058-2.171 1.58-2.787.29-.396 1.055-.459 1.453-.212 1.39.863 3.677 2.248 6.314 2.34.208.007.414.009.617.003 2.371-.057 3.806-.956 3.776-2.471-.025-1.335-1.906-2.115-4.9-2.679-4.776-.9-8.619-2.474-8.619-7.278"/></g><g><path fill="#b7adad" d="M4.47 25.472c-1.717.013-3.171-1.01-3.707-2.607a4.267 4.267 0 0 1-.056-.182c-.584-2.045.549-4.184 2.58-4.87L35.86 6.902c.386-.112.787-.17 1.19-.174 1.762-.014 3.256 1.032 3.805 2.662l.05.158c.608 2.13-.906 4.03-2.72 4.64L5.793 25.247a4.215 4.215 0 0 1-1.323.225z"/></g><g><path fill="#b7adad" d="M9.9 41.491c-1.731.013-3.19-.996-3.72-2.57a4.014 4.014 0 0 1 2.52-5.098L41.276 22.81c.42-.14.856-.212 1.293-.216 1.735-.013 3.259 1.046 3.797 2.638l.05.166a4.122 4.122 0 0 1-.497 3.313c-.466.725-1.937 1.364-1.937 1.364l-32.698 11.18c-.446.151-.913.23-1.384.237z"/></g><g><path fill="#b7adad" d="M37.015 41.56a4 4 0 0 1-3.83-2.725L22.316 6.543l-.055-.181a3.997 3.997 0 0 1 2.574-4.892 3.98 3.98 0 0 1 3.057.208 3.991 3.991 0 0 1 2.016 2.31l10.87 32.29.031.103c.611 2.138-.52 4.287-2.55 4.972-.4.134-.82.204-1.243.208z"/></g><g><path fill="#b7adad" d="M20.856 47a4 4 0 0 1-3.831-2.728L6.156 11.982A3.999 3.999 0 0 1 9.917 6.7a3.999 3.999 0 0 1 3.83 2.726l10.87 32.292a3.999 3.999 0 0 1-3.762 5.28z"/></g><g><path fill="#b7adad" d="M31.656 34.289l7.58-2.592-2.478-7.36-7.589 2.565z"/></g><g><path fill="#b7adad" d="M15.521 39.805l7.58-2.591-2.497-7.415-7.587 2.565z"/></g><g><path fill="#b7adad" d="M26.26 18.26l7.58-2.589-2.449-7.273-7.595 2.545z"/></g><g><path fill="#b7adad" d="M10.123 23.769l7.58-2.589-2.478-7.366L7.63 16.36z"/></g></g></g></svg>