<svg xmlns="http://www.w3.org/2000/svg" width="189" height="57" viewBox="0 0 189 57"><g><g><path fill="#b7adad" d="M185.86 23.614c.4 0 .64.178.64.51 0 .317-.24.512-.64.512h-.802v-1.022zm.523 1.458c.443-.128.75-.452.748-.982 0-.647-.494-1.031-1.246-1.031h-1.441v3.233h.615v-1.119h.674l.784 1.12h.735l-.871-1.22zm-.684-3.089c1.569 0 2.755 1.237 2.755 2.773s-1.195 2.79-2.772 2.79c-1.57 0-2.756-1.238-2.756-2.773 0-1.536 1.194-2.79 2.772-2.79zm-.018 5.87a3.098 3.098 0 0 0 3.096-3.097 3.067 3.067 0 0 0-3.08-3.079 3.096 3.096 0 0 0-3.096 3.096c0 1.69 1.348 3.08 3.08 3.08zM147.339 13.02a3.139 3.139 0 1 0 3.139 3.137 3.138 3.138 0 0 0-3.137-3.137zm2.164 8.694h-4.377a.321.321 0 0 0-.32.321V41.13c0 .177.143.32.32.32h4.377c.176 0 .32-.143.32-.32V22.036a.32.32 0 0 0-.32-.32zm9.729.02zm0-.605c0-1.78.682-2.573 2.212-2.573.912 0 1.645.181 2.466.455a.32.32 0 0 0 .421-.305v-3.688a.32.32 0 0 0-.227-.307c-.867-.258-1.976-.523-3.637-.523-4.043 0-6.18 2.276-6.18 6.58v.927h-2.102a.322.322 0 0 0-.321.32v3.781c0 .177.144.321.32.321h2.103V41.13c0 .177.143.32.32.32h4.376c.177 0 .321-.143.321-.32V26.118h4.087l6.26 15.01c-.711 1.576-1.41 1.89-2.364 1.89-.771 0-1.583-.23-2.413-.685a.329.329 0 0 0-.255-.024.324.324 0 0 0-.19.173l-1.483 3.254a.318.318 0 0 0 .138.414c1.549.84 2.946 1.197 4.674 1.197 3.232 0 5.018-1.505 6.593-5.555l7.593-19.62a.32.32 0 0 0-.297-.438h-4.557a.322.322 0 0 0-.303.215l-4.667 13.332-5.113-13.34a.32.32 0 0 0-.298-.207h-7.478zm-16.781.585h-4.816V16.79a.32.32 0 0 0-.32-.32h-4.376a.321.321 0 0 0-.32.32v4.924h-2.105a.32.32 0 0 0-.319.321v3.761c0 .177.143.321.319.321h2.104v9.733c0 3.933 1.958 5.927 5.819 5.927 1.57 0 2.872-.324 4.1-1.02a.32.32 0 0 0 .161-.277v-3.582a.32.32 0 0 0-.463-.288 5.515 5.515 0 0 1-2.57.62c-1.404 0-2.03-.637-2.03-2.066v-9.045h4.816a.32.32 0 0 0 .32-.32v-3.762a.31.31 0 0 0-.315-.32zm-23.079 15.73c-3.137 0-5.503-2.521-5.503-5.864 0-3.356 2.284-5.792 5.43-5.792 3.159 0 5.54 2.521 5.54 5.866 0 3.356-2.299 5.79-5.466 5.79zm0-16.13c-5.898 0-10.52 4.542-10.52 10.342 0 5.736 4.59 10.23 10.448 10.23 5.92 0 10.555-4.527 10.555-10.304 0-5.757-4.604-10.268-10.483-10.268zM102.4 31.582c0 3.432-2.115 5.828-5.142 5.828-2.993 0-5.25-2.504-5.25-5.828 0-3.323 2.257-5.827 5.25-5.827 2.978 0 5.142 2.45 5.142 5.827zM98.27 21.314c-2.465 0-4.487.97-6.154 2.96v-2.239a.32.32 0 0 0-.32-.32H87.42a.32.32 0 0 0-.32.32v24.881c0 .177.143.321.32.321h4.377a.32.32 0 0 0 .32-.32v-7.855c1.667 1.872 3.69 2.786 6.154 2.786 4.58 0 9.217-3.526 9.217-10.266.007-6.742-4.631-10.268-9.212-10.268zm-21.25 4.82c-4.888-1.165-5.758-1.983-5.758-3.702 0-1.624 1.529-2.717 3.803-2.717 2.204 0 4.39.83 6.68 2.538a.32.32 0 0 0 .454-.071l2.386-3.365a.32.32 0 0 0-.06-.435c-2.728-2.188-5.798-3.252-9.388-3.252-5.278 0-8.964 3.167-8.964 7.699 0 4.86 3.18 6.58 8.675 7.908 4.678 1.077 5.467 1.98 5.467 3.594 0 1.787-1.596 2.899-4.165 2.899-2.853 0-5.18-.961-7.784-3.216a.335.335 0 0 0-.235-.076.318.318 0 0 0-.22.113l-2.675 3.185a.317.317 0 0 0 .031.444c3.03 2.704 6.755 4.132 10.775 4.132 5.687 0 9.362-3.107 9.362-7.917.01-4.06-2.42-6.308-8.374-7.756zm-31.966-1.038c-9.126-5.42-24.178-5.917-32.889-3.273a2.648 2.648 0 1 1-1.537-5.068c10-3.036 26.624-2.45 37.128 3.787a2.648 2.648 0 0 1-2.702 4.554zm-.298 8.027zm-3.036.727c-7.607-4.677-19.208-6.032-28.209-3.3a2.21 2.21 0 0 1-2.754-1.47 2.21 2.21 0 0 1 1.471-2.753c10.282-3.12 23.062-1.608 31.801 3.762a2.206 2.206 0 0 1 .727 3.034 2.209 2.209 0 0 1-3.036.727zm-.429 6.98a1.764 1.764 0 0 1-2.426.587c-6.648-4.063-15.015-4.98-24.87-2.73a1.764 1.764 0 1 1-.785-3.439c10.784-2.465 20.034-1.404 27.496 3.156a1.764 1.764 0 0 1 .585 2.427zM28.31 0zM0 28.31c0 15.635 12.675 28.31 28.31 28.31 15.635 0 28.31-12.674 28.31-28.31C56.62 12.675 43.945 0 28.31 0V0C12.675 0 0 12.675 0 28.31z"/></g></g></svg>