<svg xmlns="http://www.w3.org/2000/svg" width="207" height="32" viewBox="0 0 207 32"><g><g opacity=".63"><g opacity=".63"><path fill="#b7adad" d="M188.448 19.018l3.045-10.524h.051l3.045 10.524zm18.655 12.413l-9.23-30.46h-12.711l-9.229 30.46h8.947l1.63-5.64h10.01l1.637 5.64z"/></g><g opacity=".63"><path fill="#b7adad" d="M50.349 19.598c-.23 4.701-2.086 5.25-5.698 5.25-3.609 0-5.465-.549-5.698-5.25a63.77 63.77 0 0 1-.078-3.4c0-1.673.042-2.663.078-3.396.233-4.701 2.089-5.25 5.698-5.25 3.612 0 5.467.549 5.698 5.25.036.734.081 1.722.081 3.395 0 1.679-.045 2.669-.081 3.401zM44.65.422c-9.185 0-13.622 1.616-14.248 9.907-.153 1.972-.184 3.998-.184 5.868.003 1.876.031 3.901.184 5.874.626 8.288 5.064 9.907 14.248 9.907 9.185 0 13.624-1.618 14.254-9.907.15-1.971.179-3.996.179-5.874.002-1.87-.03-3.897-.18-5.868C58.276 2.038 53.837.422 44.652.422z"/></g><g opacity=".63"><path fill="#b7adad" d="M0 8.577h9.105v22.866h9.109V8.577h9.105V.984H0z"/></g><g opacity=".63"><path fill="#b7adad" d="M131.11 31.43V.97h8.645v30.46z"/></g><g opacity=".63"><path fill="#b7adad" d="M114.961 12.091h-9.986V.971H96.38v30.46h8.595V19.684h9.986V31.43h8.593V.971h-8.593z"/></g><g opacity=".63"><path fill="#b7adad" d="M161.968 24.463h-5.958v-5.545h5.958c2.41 0 2.91 1.054 2.91 2.77 0 1.718-.941 2.775-2.91 2.775zM156.01 7.936h5.958c1.556 0 2.52.738 2.52 2.513 0 1.521-.953 2.458-2.52 2.458h-5.958zm12.175 7.574v-.001h.002c3.827-.978 4.95-3.266 4.95-6.571 0-6.694-4.211-7.968-10.2-7.968h-15.519v30.46h16.289c7.5 0 10.021-3.231 10.021-8.2 0-3.464-.792-6.52-5.541-7.721l-.002.001z"/></g><g opacity=".63"><path fill="#b7adad" d="M86.887 14.219c-2.144-1.265-8.158-1.458-11.21-1.653-2.221-.143-3.067-.962-3.067-2.919 0-2.565 2.443-2.66 4.556-2.66 1.744 0 2.954.159 3.803.911.329.334.732.84.748 2.634h8.172c0-3.518-.111-7.311-3.914-9.063-3.023-1.393-14.261-1.393-17.125 0-2.775 1.35-4.698 3.284-4.698 8.797 0 3.242.86 5.64 2.516 6.87 2.431 1.806 4.792 1.99 11.321 2.337 2.633.14 4.06.656 4.06 2.92 0 2.87-2.554 2.87-4.883 2.87-2.42 0-3.15-.204-3.966-.818-.718-.546-.907-1.533-.914-3.01h-8.193c0 4.196.08 7.638 4.04 9.364 3.54 1.55 14.425 1.55 17.684.112 2.824-1.248 4.853-2.912 4.853-8.585.001-3.924-.778-6.33-3.783-8.107z"/></g></g></g></svg>