<svg xmlns="http://www.w3.org/2000/svg" width="157" height="52" viewBox="0 0 157 52"><g><g><g><path fill="#b7adad" d="M60.334 44.878c-5.846-3.766-13.78-4.427-26.576-.876-13.64 3.205-18.19 5.26-24.162 1.135-2.295-2.027-3.117-5.29-2.503-9.989 1.425-7.661 5.275-15.034 12.115-23.213 3.818-4.254 7.359-7.905 12.035-9.371 3.584-.92 3.249 1.897 2.815 2.3-.458 0-1.226.072-1.82.46-.482.373-1.806 1.58-1.877 3.205-.103 2.486 2.47 1.969 3.58.604 1.196-1.539 2.964-4.485 1.574-7.23C34.932.925 33.925.25 32.675.02c-4.283-.245-8.27 1.796-11.95 4.053-8.05 5.591-14.488 13.339-18.131 21.82-2.1 5.116-4 12.445-1.153 18.41 2.203 4.14 6.776 6.339 12.232 5.879 3.826-.402 8.453-1.639 11.565-2.385 3.112-.749 19.041-6.224 24.275 3.306 0 0 1.74-3.379 6.09-3.45 3.576-.33 8.735 1.035 12.492 3.794-1.252-1.883-4.8-4.657-7.76-6.569z"/></g><g><path fill="#b7adad" d="M81.844 13.056h-4.715l-2.659 4.32h4.713zm67.919-7.158c-3.594 2.041-7.32 3.363-11.83 2.904a69.271 69.271 0 0 0-3.588 4.355c6.33 1.61 13.04-1.97 16.782-5.375 3.96-3.436 5.99-7.762 5.99-7.762s-2.968 3.392-7.354 5.878zM110.13 4.806c-.75 8.595-7.43 13.64-9.084 14.043-1.002.2-2.711-.245-1.185-3.852 2.247-4.858 6.084-8.983 10.2-11.096.101.36.098.589.07.905zm-13.018 21.66c-.48-1.034-1.615-1.696-2.826-1.624-3.933.36-7.78 3.594-9.799 8.236-1.06 2.386-1.638 4.355-2.017 7.488 1.223-1.408 3.717-3.722 6.547-4.987 0 0 .386-3.004 2.35-5.677.743-1.107 2.23-2.89 3.9-2.415 1.459.488.946 4.528-.993 8.436-1.435 2.875-3.63 5.75-5.852 7.734-1.965 1.667-4.87 3.68-7.413 2.127-1.602-.948-2.418-2.932-2.246-5.49.765-7.259 4.07-13.44 8.798-20.482C92.436 13.272 97.81 6.56 105.05 2.98c1.477-.747 2.844-.92 4.026-.46 0 0-6.796 3.738-10.036 10.651-.824 1.754-1.97 4.125-.816 6.224.604 1.092 1.674 1.178 2.537 1.12 3.97-.92 6.536-4.628 8.632-8.02 1.216-2.572 2.296-5.13 2.296-7.977 0-.344-.018-.804-.047-1.15 1.897-1.005 5.787.777 5.787.777 3.04 1.006 9.513 5.965 11.697 6.913 1.065-1.235 2.815-3.104 3.8-4.038l-1.426-.877c-2.284-1.394-4.698-2.717-7.075-4.025-5.396-2.946-9.79-1.911-12.025-1.106-.879.316-1.681.589-1.681.589-1.66-1.811-4.38-1.639-6.386-1.15-7.21 2.07-13.905 7.115-21.082 15.868-5.277 6.856-8.55 12.778-10.295 18.628-1.344 3.938-1.753 9.73 1.53 13.166 2.79 2.917 6.49 2.285 9.103 1.236 5.661-2.788 10.75-8.797 13.285-15.71.612-2.056 1.291-4.959.238-7.173zm-62.757-6.668a742.7 742.7 0 0 1-.961 2.213c-.138.115-.356.058-.605 0l-.427-.072c-1.342-.417-2.355-1.308-2.667-2.371-.43-2.07 1.338-3.695 2.117-4.283.748-.518 1.91-.791 2.584-.26.417.49.574 1.122.574 1.812 0 .934-.288 1.983-.615 2.96zM32.31 23.95s-.043.13-.065.172c-.005 0-2.164 3.521-2.164 3.521-1.303 1.74-2.93 3.925-4.963 4.974-.603.2-1.436.33-1.86-.2-.901-1.079-.437-2.574-.06-3.78l.133-.432c1.08-2.932 2.795-5.52 4.464-7.92a.22.22 0 0 1 .085-.029c.004.015.01.015.013.044 1.047 2.012 3.011 2.945 4.48 3.377.008 0 .018.015.018.044 0 .042-.024.1-.081.23zm27.005-2.314c.966-1.336 3.777-4.915 4.462-5.519 2.304-2.027 3.226-1.135 3.305-.503a454.524 454.524 0 0 1-7.075 12.232c.004-.015-.747 1.135-.747 1.135-1.054 1.61-2.116 2.99-3.847 3.952-.247.073-.654.101-.925-.1-.326-.216-.454-.576-.418-.95.104-1.235 1.362-5.015 5.245-10.247zm-23.933-8.739c-2.979-1.954-8.967 1.783-13.763 8.193-4.386 5.75-6.28 12.432-4.219 15.523 3.066 3.636 8.758-1.653 11.178-4.484l.312-.331c1.646-1.768 2.918-3.895 4.149-5.937 0 0 1.131-1.868 1.185-1.955.7-.129 1.541-.33 2.49-.603-.013.043-3.63 6.123-3.261 9.14.114.921.027 4.285 3.31 5.305 4.377.733 7.872-2.66 10.955-5.678 0 0 .525-.502.822-.789-.075.3-.173.702-.173.702-1.281 4.456.446 5.391 1.526 5.736 3.265.95 7.166-3.794 7.179-3.794-.102 1.494-.397 2.73 1.178 3.722 1.486.532 2.99-.28 4.135-1.041 4.12-2.903 7.438-7.447 10.118-11.375h-1.71c-.02 0-4.219 6.086-6.945 7.409-.004 0-.5.254-.787.053-.354-.302-.214-.93.005-1.375.013-.028 10.527-18.264 10.527-18.264H68.63s-.542.878-.586.935c-.034-.028-.113-.18-.168-.252-3.076-4.254-10.04 2.29-15.284 9.879-2.019 2.918-4.59 6.203-7.254 8.575 0 0-3.949 3.619-5.635 1.019-.617-1.093-.427-2.69-.08-3.739 1.965-5.591 5.349-10.666 9.2-13.727 1.088-.848 2.27-1.093 2.856-.733.559.33.649 1.15.295 1.71-.897-.029-1.615.244-2.2.848-1.15 1.207-1.55 2.371-1.184 3.464 1.777 2.53 5.322-2.472 5.15-5.52-.06-1.092-.643-2.127-1.513-2.63-1.296-.776-3.274-.575-4.554.043-1.714.647-4.426 2.903-6.009 4.657-1.993 2.2-5.411 4.643-6.48 4.37.35-.935 3.237-6.843.2-9.056z"/></g><g><path fill="#b7adad" d="M131.276 43.873c-.002 0-.486.43-.486.43-.691.619-1.402 1.28-2.26.949-.237-.086-.404-.402-.444-.647-.04-1.768.757-3.406 1.529-5.002l.198-.417c2.22-3.708 4.802-8.077 8.593-11.11.64-.46 1.333-.848 2.064-.546.169.158.365.431.365.704 0 .087-.077.317-.122.388-1.058 1.712-2.067 3.508-3.047 5.233-1.917 3.406-3.905 6.927-6.39 10.018zm-20.543-8.74c-.145.102-2.706-.761-3.2-3.132-.42-2.042.985-3.637 2.345-4.442.584-.46 1.464-.617 2.109-.388.599.403.76 1.122.76 1.897 0 .475-.062.963-.118 1.409l-.012.1a19.148 19.148 0 0 1-1.884 4.557zm-9.784 9.645c-.26-.388-.348-.812-.356-1.271-.05-2.819 2.982-7.866 5.122-10.615h.005c.897 1.964 2.928 3.226 4.154 3.758-1.523 3.393-6.746 10.658-8.925 8.128zm36.966.5c-.507.345-1.22.08-.953-.71.663-2.012 3.3-6.113 3.3-6.113l7.344-13.026h-5.03c-.24.393-.75 1.294-.75 1.294-.233-.387-.93-1.25-1.216-1.436-1.23-.776-3.032-.41-4.276.295-5.409 3.163-9.355 9.41-12.467 14.284 0 0-3.276 5.416-5.095 5.819-1.42.115-1.273-1.797-1.212-2.243.55-3.22 1.824-6.281 3.108-9.055a69.54 69.54 0 0 0 8.303-6.784c5.88-5.62 10.837-11.988 11.561-13.411 0 0-.784.158-1.71.187-4.523 6.31-13.78 15.48-16.586 16.845 1.243-2.99 9.275-17.262 16.11-24.09l1.076-1.035c1.663-1.624 3.386-3.291 4.73-3.564.141-.014.324 0 .482.331.06 1.265-.411 2.199-.951 3.263l-.757 1.552s1.072-.201 1.776-.432c.817-1.537 1.722-3.262 1.388-5.317-.111-.662-.59-1.165-1.215-1.28-2.04-.388-4.261 1.121-6.05 2.343l-.072.043c-9.191 7.201-16.953 17.579-23.739 31.75-.491.374-2.392.82-2.714.604.67-1.38 1.513-3.234 1.935-5.246.074-.575.142-1.164.142-1.74 0-1.236-.297-2.4-1.405-3.204-1.3-.647-2.906-.345-3.989.143-4.85 2.012-8.475 6.986-11.092 11.082-1.407 2.602-2.81 5.389-3.198 8.58-.274 2.5.284 4.11 1.706 4.916 1.461.747 3.302-.03 4.025-.403 4.914-2.587 8.347-7.776 11.054-12.519.107-.014 1.585-.057 2.703-.345.014 0 .02 0 .045.015-.064.215-.641 1.94-.641 1.94-1.716 5.03-2.509 8.452-.888 10.478 2.315 2.86 6.148-.1 9.266-4.01-.669 4.685 1.76 5.419 3.61 5.06 2.127-.575 4.496-2.847 5.596-4.01-.353 1.365-.257 3.809 1.677 4.053 1.326.245 2.318-.477 3.466-1.095 4.119-2.242 9.048-9.715 10.328-11.875h-1.678c-1.82 2.75-4.135 6.355-7.047 8.066z"/></g></g></g></svg>